<?xml version="1.0" encoding="UTF-8"?>
<svg viewbox="0 0 60 60" version="1.1" viewBox="0 0 60 60" xmlns="http://www.w3.org/2000/svg">
 <g transform="translate(.9 1.33)">
  <path d="m22.2 54.9c0-0.927-0.035-3.98-0.035-7.76 0-2.65 0.874-4.37 1.86-5.25-6.23-0.721-12.8-3.15-12.8-14 0-3.1 1.1-5.63 2.89-7.62-0.286-0.72-1.25-3.61 0.278-7.51 0 0 2.36-0.764 7.72 2.91 2.24-0.628 4.64-0.946 7.03-0.951 2.38 5e-3 4.78 0.323 7.03 0.951 5.36-3.67 7.71-2.91 7.71-2.91 1.53 3.91 0.57 6.8 0.278 7.51 1.8 1.98 2.88 4.51 2.88 7.62 0 10.9-6.56 13.3-12.8 14 1.01 0.882 1.91 2.61 1.91 5.26 0 3.79-0.035 6.85-0.035 7.78 0 0.762 0.505 1.64 1.93 1.37 11.1-3.76 19.2-14.4 19.2-26.9 0-15.7-12.6-28.4-28.1-28.4s-28.1 12.7-28.1 28.4c0 12.5 8.04 23.2 19.2 26.9 1.4 0.262 1.91-0.614 1.91-1.37z" fill="#1a8cff"/>
  <g transform="translate(-6.85 -6.7)" fill="none" stroke="#f8f8f8" stroke-linecap="round" stroke-linejoin="round" stroke-miterlimit="10" stroke-width="2">
   <path d="m29 61.6c0-0.927-0.035-3.98-0.035-7.76 0-2.65 0.874-4.37 1.86-5.25-6.23-0.721-12.8-3.15-12.8-14 0-3.1 1.1-5.63 2.89-7.62-0.286-0.72-1.25-3.61 0.278-7.51 0 0 2.36-0.764 7.72 2.91 2.24-0.628 4.64-0.946 7.03-0.951 2.38 5e-3 4.78 0.323 7.03 0.951 5.36-3.67 7.71-2.91 7.71-2.91 1.53 3.91 0.57 6.8 0.278 7.51 1.8 1.98 2.88 4.51 2.88 7.62 0 10.9-6.56 13.3-12.8 14 1.01 0.882 1.91 2.61 1.91 5.26 0 3.79-0.035 6.85-0.035 7.78 0 0.762 0.505 1.64 1.93 1.37 11.1-3.76 19.2-14.4 19.2-26.9 0-15.7-12.6-28.4-28.1-28.4s-28.1 12.7-28.1 28.4c0 12.5 8.04 23.2 19.2 26.9 1.4 0.262 1.91-0.614 1.91-1.37z"/>
   <path d="m16.3 48.1c2.57 0.78 3.58 1.64 4.79 3.66 1.2 2.03 2.62 4.29 7.93 3"/>
  </g>
 </g>
</svg>
